<?xml version="1.0" encoding="UTF-8"?>
<svg id="Layer_1" data-name="Layer 1" xmlns="http://www.w3.org/2000/svg" viewBox="0 0 300 300">
  <defs>
    <style>
      .cls-1 {
        fill: #cee6e2;
        stroke-width: 0px;
      }
    </style>
  </defs>
  <path class="cls-1" d="M165.06,252.02c-7.02.13-14.01-.27-20.97-1.19-6.05-.81-12.03-1.98-17.9-3.59-9.86-2.7-19.35-6.41-28.35-11.29-6.27-3.39-12.23-7.26-17.82-11.71-5.03-4-9.7-8.39-14.02-13.15-5.06-5.58-9.44-11.64-13.14-18.17-4.62-8.16-7.94-16.84-9.95-26.03-1.7-7.8-2.23-15.66-1.8-23.61.47-8.79,2.38-17.26,5.4-25.53,2.69-7.35,6.31-14.21,10.78-20.57,2.75-3.92,5.93-7.55,9.08-11.16,4.84-5.55,10.51-10.21,16.47-14.51,4.69-3.37,9.64-6.32,14.77-8.99,4.51-2.35,9.15-4.38,13.9-6.15,7.44-2.78,15.06-4.95,22.92-6.14,5.12-.78,10.26-1.43,15.41-1.88,3.48-.3,6.99-.12,10.49-.18,1.18-.02,2.37-.26,3.54-.2,3.5.19,7.01.34,10.48.77,4.43.55,8.87,1.19,13.24,2.12,4.58.97,9.12,2.19,13.62,3.52,8.56,2.53,16.69,6.13,24.48,10.46,3.71,2.07,7.27,4.43,10.8,6.79,6.26,4.17,11.93,9.08,17.13,14.51,5.76,6.02,10.79,12.58,15,19.8,3.61,6.18,6.51,12.67,8.64,19.48,1.17,3.74,1.96,7.62,2.72,11.48,1.24,6.33,1.46,12.74,1.18,19.17-.22,5.29-1.03,10.52-2.25,15.67-1.36,5.73-3.19,11.32-5.72,16.64-2.34,4.92-4.95,9.69-8.1,14.16-2.89,4.11-5.94,8.08-9.41,11.7-2.72,2.84-5.58,5.55-8.53,8.14-5.64,4.96-11.82,9.22-18.38,12.86-4.05,2.25-8.29,4.14-12.49,6.12-4.64,2.19-9.52,3.77-14.43,5.2-4.96,1.45-10.01,2.59-15.11,3.49-6.18,1.08-12.39,1.65-18.64,1.96-1.02.05-2.05,0-3.07,0ZM116.06,154.84c-.49-.36-.75-.61-1.06-.78-2.11-1.18-4.23-2.34-6.35-3.51-5.09-2.81-9.49-6.29-12.29-11.59-1.33-2.51-2.13-5.08-2.24-7.85-.05-1.38.13-2.82.49-4.15,1.25-4.56,4.18-7.99,7.8-10.86,1.47-1.17,3.11-2.12,4.67-3.19,2.31-1.58,4.92-2.5,7.57-3.19,2.43-.63,4.95-.99,7.46-1.23,3.8-.36,7.62-.41,11.42.22,4.34.72,8.2,2.61,11.85,4.95,1.4.9,2.78,1.92,3.89,3.14,2.7,2.95,4.66,6.34,5.14,10.42.15,1.25.04,2.45-.45,3.65-1.36,3.33-3.96,5.31-7.12,6.68-2.69,1.16-5.46,1.71-8.37.96-2.54-.65-4.06-2.5-3.97-4.65.05-1.16-.27-2.35-.53-3.5-.81-3.52-2.7-6.35-5.79-8.25-3.06-1.88-7.33-1.35-10.06,1.86-1.43,1.67-2.09,3.56-1.53,5.7.58,2.19,1.74,4.08,3.68,5.34,1.67,1.09,3.41,2.07,5.13,3.09,2.41,1.43,4.83,2.82,7.22,4.28,1.66,1.01,3.27,2.1,4.89,3.18.55.37,1.04.44,1.64.1,3.52-1.99,7.14-3.8,10.55-5.96,2.76-1.75,5.29-3.88,7.89-5.88,4.62-3.53,8.41-7.86,12-12.4,1.23-1.55,2.57-3.08,4.11-4.31,2.66-2.14,5.69-3.72,8.94-4.8,5.49-1.84,10.71-1.37,15.55,2.01,1.09.76,2.26,1.42,3.55,2.23.34-.68.62-1.24.91-1.8.76-1.47,1.79-2.44,3.58-2.64,5.09-.57,10.03-.13,14.74,1.92,1.16.51,2.25,1.31,3.17,2.19,1.21,1.15.98,2.9-.33,3.95-.38.3-.76.6-1.17.87-.88.57-1.35,1.37-1.43,2.41-.12,1.55-.34,3.11-.35,4.66-.02,4.04.05,8.09.09,12.13,0,1.21,0,2.42,0,3.84.55-.23.85-.31,1.1-.47.96-.59,1.92-1.19,2.87-1.8,6.17-3.99,11.44-8.8,14.39-15.75,1.38-3.25,2.48-6.56,2.82-10.08.24-2.44-.21-4.82-.71-7.2-.81-3.82-2.04-7.49-4.09-10.84-2.38-3.87-5.2-7.44-8.27-10.76-5.25-5.68-11.01-10.78-17.54-15.01-6.19-4.02-12.71-7.3-19.62-9.82-7.69-2.8-15.64-4.53-23.79-5.13-6.84-.5-13.68-.35-20.49.69-6.26.96-12.36,2.47-18.3,4.64-4.72,1.72-9.28,3.79-13.65,6.29-5.21,2.98-10.14,6.37-14.68,10.29-4.82,4.17-9.16,8.81-13.06,13.87-4.47,5.8-8.15,12.05-11.11,18.73-2.56,5.79-4.51,11.78-5.83,17.98-1.07,5.02-1.72,10.11-1.95,15.22-.18,4.09-.07,8.19.32,12.29.67,7.18,2.13,14.18,4.43,20.99,2.57,7.6,6.08,14.76,10.49,21.46,2.71,4.11,5.73,7.97,9.09,11.55,5.29,5.64,11.12,10.65,17.65,14.84,4.55,2.92,9.3,5.46,14.28,7.55,6.59,2.76,13.39,4.83,20.48,5.82,4,.56,8.02,1.09,12.05,1.28,6.21.3,12.38-.24,18.52-1.28,7.97-1.35,15.64-3.71,22.97-7.08,7.78-3.58,14.92-8.19,21.42-13.8,5.04-4.35,9.51-9.2,13.55-14.51,3.71-4.88,6.85-10.08,9.48-15.58,4-8.37,6.72-17.15,8.01-26.36.74-5.3,1.15-10.62.96-15.98-.21-5.89-.92-11.72-2.18-17.47-.05-.23-.22-.43-.4-.79-.4.78-.71,1.4-1.03,2.01-2.16,4-5.14,7.34-8.51,10.31-2.58,2.28-5.37,4.32-8.08,6.46-3.09,2.44-6.33,4.68-9.84,6.46-1.41.71-1.98,1.67-1.76,3.18.02.16.04.32.04.48-.09,4.2.16,8.41-.59,12.59-.96,5.33-3.22,9.92-7.3,13.56-6.58,5.85-14.25,8.77-23.06,8.76-4.07,0-8.08-.42-12.02-1.43-2.58-.65-5.04-1.63-7.09-3.38-1.18-1.01-2.27-2.13-3.35-3.24-1.47-1.51-2.25-3.44-2.62-5.44-.25-1.33-.26-2.86.14-4.14.74-2.4,2.19-4.52,4.2-6.03,2.36-1.78,4.86-3.4,7.43-4.86,4.66-2.66,9.78-4.24,14.82-6,2.85-.99,5.68-2.04,8.51-3.1,1.17-.44,1.31-.67,1.23-1.94-.04-.67-.21-1.34-.35-2.24-.91.52-1.6.92-2.29,1.3-1.79.99-3.53,2.08-5.39,2.93-6.16,2.83-12.54,3.39-19.07,1.49-2.71-.79-4.96-2.32-6.48-4.8-1.52-2.47-2.38-5.17-2.87-8-.17-1.02-.33-2.04-.55-3.39-6.08,4.96-12.46,8.82-19.43,11.86.24.37.32.58.47.71,2.37,2.14,4.43,4.52,6.22,7.19,2.27,3.39,3.87,6.99,4.23,11.04.15,1.69.11,3.57-.49,5.11-1.18,3.01-3.07,5.68-5.5,7.87-.83.75-1.84,1.32-2.8,1.92-1.55.96-3.06,2.04-4.71,2.77-2.16.95-4.44,1.62-6.67,2.41-3.86,1.36-7.91,1.35-11.91,1.67-.21.02-.42-.09-.63-.12-.75-.09-1.5-.18-2.25-.24-1.08-.09-2.19.02-3.22-.24-3.54-.9-7.14-1.64-10.37-3.49-3.64-2.09-6.95-4.44-8.8-8.46-1.53-3.34-1.45-6.7-.09-9.89,2.41-5.66,6.88-9.42,12.31-12.1,1.73-.85,3.48-1.65,5.41-2.56ZM199.82,130.57c-.19-1.43-.44-2.86-.57-4.3-.17-1.85-1.59-3-3.76-3.02-2.96-.02-5.6.97-7.82,2.96-1.64,1.46-2.79,3.24-3.7,5.24-1.68,3.68-1.55,7.28.02,10.93,1.8,4.17,6.97,4.82,10.11,2.53,1.47-1.07,2.55-2.49,3.26-4.15,1.39-3.24,2.38-6.59,2.46-10.19ZM133.55,170.68c.1-1.08-.19-2.2-.84-3.34-1.67-2.96-4.26-4.93-6.9-6.9-.65-.48-1.21-.5-1.9-.09-1.11.66-2.36,1.11-3.4,1.85-1.35.96-2.65,2.04-3.8,3.22-1.69,1.74-1.8,4.53-.52,7.12.68,1.38,1.7,2.41,2.8,3.46,2.58,2.46,5.47,3.55,8.96,2.58,1.87-.52,3.55-1.34,4.59-3.21.8-1.45.94-2.94,1.02-4.7ZM201.24,161.47c-.33-.03-.51-.09-.64-.04-3.99,1.52-7.93,3.16-11.44,5.61-1.87,1.3-3.4,3-4.12,5.26-1.12,3.5.67,6.76,3.91,7.46,2.27.49,4.56.37,6.5-1.11,3.55-2.69,5.91-6.08,5.87-10.75-.02-2.14-.06-4.28-.09-6.43Z"/>
</svg>