<?xml version="1.0" encoding="UTF-8"?>
<svg id="Layer_1" data-name="Layer 1" xmlns="http://www.w3.org/2000/svg" viewBox="0 0 300 300">
  <defs>
    <style>
      .cls-1 {
        fill: #000;
        stroke-width: 0px;
      }
    </style>
  </defs>
  <path class="cls-1" d="M153.79,248.49c-6.78.12-13.52-.26-20.24-1.15-5.84-.78-11.61-1.92-17.28-3.47-9.52-2.6-18.68-6.19-27.37-10.9-6.05-3.28-11.81-7.01-17.2-11.3-4.86-3.86-9.36-8.1-13.53-12.7-4.88-5.39-9.11-11.24-12.69-17.54-4.46-7.88-7.67-16.26-9.61-25.13-1.64-7.53-2.15-15.12-1.74-22.79.45-8.49,2.29-16.67,5.21-24.65,2.6-7.1,6.09-13.71,10.4-19.86,2.65-3.78,5.73-7.28,8.77-10.77,4.68-5.36,10.15-9.86,15.9-14,4.52-3.26,9.31-6.1,14.26-8.68,4.35-2.27,8.83-4.23,13.41-5.94,7.18-2.68,14.54-4.78,22.13-5.93,4.94-.75,9.9-1.38,14.88-1.81,3.36-.29,6.75-.11,10.13-.18,1.14-.02,2.29-.25,3.42-.19,3.38.18,6.77.33,10.12.74,4.28.53,8.57,1.15,12.78,2.04,4.42.93,8.81,2.11,13.14,3.39,8.26,2.44,16.11,5.92,23.63,10.1,3.58,1.99,7.01,4.28,10.43,6.56,6.05,4.03,11.52,8.77,16.54,14.01,5.56,5.81,10.42,12.15,14.48,19.11,3.48,5.97,6.28,12.23,8.34,18.8,1.13,3.61,1.9,7.36,2.63,11.08,1.2,6.11,1.4,12.3,1.14,18.5-.22,5.11-.99,10.15-2.17,15.13-1.32,5.53-3.08,10.93-5.52,16.07-2.26,4.75-4.78,9.36-7.82,13.67-2.79,3.96-5.74,7.8-9.08,11.3-2.62,2.74-5.39,5.35-8.23,7.86-5.45,4.79-11.41,8.9-17.74,12.41-3.91,2.17-8.01,4-12.05,5.91-4.48,2.12-9.19,3.64-13.93,5.03-4.79,1.4-9.66,2.5-14.59,3.37-5.96,1.04-11.96,1.59-18,1.89-.99.05-1.97,0-2.96,0ZM106.48,154.67c-.47-.35-.73-.59-1.03-.76-2.04-1.14-4.08-2.26-6.13-3.38-4.92-2.71-9.16-6.07-11.87-11.19-1.28-2.42-2.06-4.9-2.16-7.58-.05-1.33.12-2.72.48-4.01,1.21-4.4,4.03-7.72,7.53-10.49,1.42-1.13,3.01-2.05,4.51-3.08,2.23-1.52,4.75-2.42,7.3-3.08,2.34-.61,4.78-.96,7.2-1.19,3.67-.35,7.36-.4,11.03.22,4.19.7,7.92,2.52,11.44,4.78,1.35.86,2.68,1.86,3.76,3.03,2.6,2.85,4.5,6.12,4.96,10.06.14,1.21.04,2.36-.43,3.52-1.32,3.21-3.82,5.13-6.88,6.45-2.59,1.12-5.27,1.65-8.08.93-2.45-.63-3.92-2.42-3.83-4.49.05-1.12-.26-2.27-.52-3.38-.78-3.4-2.6-6.13-5.59-7.97-2.96-1.82-7.07-1.3-9.71,1.79-1.38,1.61-2.02,3.44-1.47,5.5.56,2.11,1.68,3.94,3.56,5.16,1.62,1.05,3.3,2,4.95,2.98,2.32,1.38,4.67,2.72,6.97,4.13,1.6.98,3.16,2.03,4.72,3.07.53.36,1.01.42,1.59.09,3.4-1.92,6.9-3.67,10.19-5.75,2.67-1.69,5.1-3.75,7.62-5.68,4.46-3.41,8.12-7.59,11.59-11.97,1.19-1.5,2.49-2.97,3.97-4.16,2.57-2.07,5.5-3.59,8.63-4.64,5.3-1.78,10.34-1.32,15.01,1.94,1.05.74,2.18,1.37,3.43,2.15.33-.66.6-1.2.87-1.74.73-1.42,1.73-2.35,3.46-2.55,4.91-.55,9.68-.13,14.23,1.86,1.12.49,2.17,1.27,3.06,2.11,1.17,1.11.95,2.8-.32,3.81-.36.29-.74.58-1.13.84-.85.55-1.3,1.32-1.38,2.32-.11,1.5-.33,3-.34,4.5-.02,3.9.05,7.81.08,11.72,0,1.17,0,2.34,0,3.71.53-.22.82-.3,1.06-.45.93-.57,1.85-1.15,2.77-1.74,5.96-3.86,11.04-8.5,13.9-15.21,1.33-3.14,2.39-6.34,2.73-9.74.23-2.35-.2-4.65-.69-6.95-.79-3.69-1.97-7.23-3.95-10.46-2.3-3.74-5.02-7.18-7.99-10.39-5.07-5.49-10.63-10.4-16.93-14.5-5.97-3.88-12.27-7.05-18.94-9.49-7.43-2.71-15.1-4.38-22.97-4.95-6.6-.48-13.2-.34-19.78.67-6.05.92-11.93,2.38-17.67,4.48-4.55,1.66-8.96,3.66-13.17,6.07-5.03,2.88-9.79,6.15-14.17,9.94-4.66,4.03-8.84,8.5-12.61,13.39-4.31,5.6-7.87,11.64-10.72,18.08-2.47,5.59-4.36,11.37-5.63,17.35-1.03,4.85-1.66,9.76-1.88,14.7-.18,3.95-.06,7.91.31,11.86.65,6.93,2.05,13.69,4.27,20.26,2.48,7.34,5.87,14.24,10.13,20.72,2.61,3.97,5.53,7.69,8.78,11.15,5.11,5.45,10.74,10.29,17.04,14.32,4.4,2.82,8.98,5.28,13.79,7.29,6.36,2.67,12.93,4.67,19.77,5.62,3.86.54,7.75,1.05,11.64,1.24,5.99.29,11.96-.23,17.88-1.23,7.7-1.31,15.1-3.58,22.18-6.84,7.51-3.45,14.41-7.91,20.67-13.32,4.86-4.2,9.18-8.88,13.08-14.01,3.58-4.71,6.62-9.73,9.15-15.04,3.86-8.08,6.49-16.56,7.73-25.45.72-5.12,1.11-10.26.93-15.43-.2-5.68-.88-11.31-2.11-16.87-.05-.22-.21-.41-.39-.76-.39.76-.68,1.36-1,1.94-2.08,3.86-4.96,7.09-8.22,9.95-2.49,2.2-5.19,4.17-7.8,6.24-2.99,2.35-6.11,4.52-9.5,6.24-1.36.69-1.91,1.62-1.7,3.07.02.15.04.31.04.47-.08,4.06.16,8.12-.57,12.15-.92,5.15-3.11,9.58-7.05,13.09-6.35,5.65-13.76,8.47-22.26,8.46-3.93,0-7.8-.41-11.6-1.38-2.49-.63-4.87-1.57-6.85-3.26-1.14-.97-2.19-2.05-3.24-3.13-1.42-1.46-2.17-3.32-2.53-5.25-.24-1.29-.25-2.76.14-3.99.72-2.31,2.11-4.36,4.05-5.82,2.28-1.72,4.7-3.28,7.18-4.7,4.5-2.57,9.44-4.1,14.31-5.79,2.75-.96,5.49-1.97,8.22-2.99,1.13-.42,1.26-.65,1.19-1.87-.04-.65-.2-1.29-.34-2.16-.88.5-1.54.89-2.21,1.26-1.73.95-3.41,2.01-5.2,2.83-5.95,2.73-12.11,3.28-18.41,1.44-2.61-.76-4.79-2.24-6.26-4.63-1.47-2.39-2.3-4.99-2.77-7.73-.17-.99-.32-1.97-.53-3.28-5.87,4.79-12.03,8.52-18.76,11.45.23.36.31.56.45.68,2.29,2.06,4.28,4.36,6,6.94,2.19,3.27,3.73,6.75,4.09,10.65.15,1.63.11,3.45-.48,4.93-1.14,2.91-2.96,5.48-5.31,7.6-.8.73-1.77,1.27-2.7,1.85-1.5.93-2.95,1.97-4.55,2.67-2.08.92-4.29,1.57-6.44,2.33-3.72,1.32-7.64,1.3-11.5,1.61-.2.02-.41-.09-.61-.11-.72-.08-1.44-.17-2.17-.23-1.04-.08-2.12.02-3.11-.24-3.42-.87-6.89-1.58-10.01-3.37-3.52-2.02-6.71-4.29-8.49-8.17-1.48-3.22-1.4-6.47-.09-9.54,2.33-5.47,6.64-9.09,11.89-11.68,1.67-.82,3.36-1.59,5.22-2.47ZM187.35,131.24c-.19-1.38-.42-2.76-.55-4.15-.17-1.79-1.54-2.9-3.63-2.91-2.86-.02-5.4.93-7.55,2.86-1.58,1.41-2.69,3.13-3.57,5.06-1.62,3.55-1.5,7.02.02,10.55,1.73,4.03,6.73,4.65,9.76,2.45,1.42-1.03,2.46-2.4,3.15-4,1.34-3.13,2.3-6.36,2.38-9.84ZM123.37,169.97c.1-1.04-.19-2.12-.81-3.23-1.61-2.86-4.12-4.76-6.66-6.66-.63-.47-1.16-.48-1.84-.08-1.07.63-2.27,1.07-3.28,1.78-1.3.93-2.56,1.97-3.67,3.11-1.63,1.68-1.74,4.37-.51,6.87.65,1.33,1.64,2.33,2.7,3.34,2.49,2.38,5.28,3.43,8.65,2.49,1.81-.51,3.42-1.29,4.43-3.1.78-1.4.9-2.84.98-4.53ZM188.72,161.07c-.32-.03-.49-.09-.62-.04-3.85,1.47-7.65,3.05-11.04,5.42-1.8,1.26-3.28,2.89-3.98,5.08-1.08,3.38.65,6.53,3.78,7.2,2.2.47,4.4.36,6.28-1.07,3.43-2.6,5.7-5.87,5.67-10.37-.02-2.07-.05-4.13-.08-6.21Z"/>
</svg>