<?xml version="1.0" encoding="UTF-8"?>
<svg id="Layer_1" data-name="Layer 1" xmlns="http://www.w3.org/2000/svg" viewBox="0 0 655.78 140.99">
  <defs>
    <style>
      .cls-1, .cls-2 {
        fill: #000;
      }

      .cls-1, .cls-3 {
        stroke-width: 0px;
      }

      .cls-2 {
        font-family: Monarcha, Monarcha;
        font-size: 40px;
      }

      .cls-3 {
        fill: #387d70;
      }
    </style>
  </defs>
  <g>
    <path class="cls-1" d="M348.07,110.94c.33-.12.45-.33.45-.7.03-1.12.06-2.24.06-3.39-.09-1.48-1.73-2.09-3.27-2.45-.21-.06-.39-.24-.39-.48,0-.27.24-.42.51-.42h5.57c.58,0,.7.39.7.91l-.21,5.54c-.03.7-.18.97-.73,1.39-1.88,1.45-4.45,2.24-6.81,2.24-5.3,0-8.99-3.91-8.99-9.21,0-6.72,5.12-11.42,11.45-11.45,3.33,0,4.94.76,4.94,3.63,0,.67-.15,1.85-.15,2.09,0,.27-.21.54-.45.54-.3,0-.45-.18-.58-.45-1.03-2.48-3.15-3.66-5.51-3.66-4.36,0-6.99,3.36-6.99,7.63,0,4.78,3.36,8.51,8.15,8.51.73,0,1.61-.12,2.27-.27Z"/>
    <path class="cls-1" d="M360,98.79l-.27,3.51c0,.09.03.12.06.12s.06-.03.09-.09c.73-1.88,2.88-4.09,4.94-4.09.94,0,1.06,1.97,1.06,3.94,0,.45-.24.85-.61.85-.27,0-.45-.12-.61-.33-.33-.39-.94-1.15-2.09-1.15-2,0-2.69,2.18-2.76,4l-.12,3.57c0,2.24,1.03,2.88,3.36,3.21.21.03.39.18.39.45s-.21.45-.45.45h-8.36c-.21,0-.45-.15-.45-.42s.15-.42.42-.48c1.85-.39,2-1.57,2.06-3.21l.21-6.27c0-1.18-.91-1.6-2.42-1.6-.15-.12-.21-.27-.21-.42,0-.3.24-.58.64-.64,1-.18,2.24-.7,3.03-1.21.42-.27.76-.58,1.27-.58.3,0,.64.12.82.39Z"/>
    <path class="cls-1" d="M370.12,104.12c-.76,0-1.73-.67-1.73-1.36s1-1.91,1.67-2.51c1.39-1.24,3.15-1.94,4.97-1.94,2.6,0,5,1.48,5.03,4.97l-.24,5.93c0,1.45.64,2.51,1.85,2.51.33,0,.67-.06.76-.06.12.03.18.12.18.27,0,.79-1.94,1.48-3.09,1.48-1.97,0-2.57-1.51-2.57-2.85,0-.03-.03-.06-.09-.06s-.09.03-.09.06c-.88,1.97-2.69,2.97-4.54,2.97-2.51,0-4.06-2-4.06-4.54,0-1.85,5.03-3.33,8.08-3.88.36-.06.73-.18.73-.88,0-2.91-1.48-3.88-3.3-3.88-1.09,0-2.51.27-2.51,1.06,0,1.85-.3,2.69-1.03,2.69ZM373.69,111.39c2.91,0,3.24-3.39,3.24-5.18,0-.09-.03-.15-.12-.15-.76,0-5.54,1.51-5.54,2.48,0,1.57.94,2.85,2.42,2.85Z"/>
    <path class="cls-1" d="M400.16,104.91c0,4.69-3.03,8.66-7.75,8.66-1.09,0-2.48-.27-3.42-1.09-.24-.15-.33-.3-.36-.3s-.06.03-.06.09c.06.27.06.58.06.91l-.12,2.91c0,2.3,1.12,2.97,3.39,3.24.24.03.39.18.39.45s-.15.45-.42.45h-8.42c-.21,0-.42-.15-.42-.45,0-.24.12-.42.39-.45,1.85-.42,2.03-1.64,2.09-3.24l.45-13.23c0-1.18-.94-1.6-2.48-1.6-.09-.12-.12-.27-.12-.42,0-.33.21-.58.58-.64,1-.18,2.21-.73,3.03-1.24.42-.27.79-.51,1.3-.54.27,0,.61.12.76.36l-.24,3.54c0,.06.03.09.06.09s.06-.03.09-.09c1-2.36,3.03-4.03,5.51-4.03,3.97,0,5.72,3.18,5.72,6.63ZM388.87,106.15l-.12,3.03c0,.27,0,.36.15.58.97,1.3,2.48,1.97,3.97,1.97,2.94,0,4.72-2.51,4.72-5.48s-1.57-5.57-4.54-5.6c-3,0-4.09,2.94-4.18,5.51Z"/>
    <path class="cls-1" d="M417.42,103.37l-.21,5.9c0,1.7.24,2.73,1.94,3.06.27.06.42.21.42.45,0,.27-.18.45-.48.45h-7.09c-.21,0-.42-.15-.42-.42s.12-.42.39-.48c1.94-.33,2.18-1.45,2.24-3.18l.15-4.36c0-1.94-.45-4.03-2.85-4.03-2.91,0-4,2.82-4.09,5.3l-.12,3.3c0,1.6.24,2.66,1.94,2.97.24.06.42.21.42.45,0,.27-.21.45-.48.45h-7.06c-.24,0-.45-.15-.45-.42s.12-.42.42-.48c1.91-.33,2.15-1.48,2.21-3.18l.45-13.48c0-1.15-.94-1.57-2.48-1.57-.09-.12-.12-.3-.12-.45,0-.27.15-.52.54-.61,1.03-.18,2.27-.7,3.09-1.24.42-.27.73-.54,1.27-.54.33,0,.67.12.82.39l-.27,7.96c-.03,1.12-.12,1.91-.27,2.7,0,.06.03.09.06.09s.06-.03.09-.06c.97-2.36,3.06-4.06,5.57-4.06,3.39,0,4.36,2.57,4.36,5.09Z"/>
    <path class="cls-1" d="M424.27,102.7c0-1.18-.76-1.6-2.3-1.6-.09-.09-.15-.27-.15-.42,0-.27.18-.54.58-.64,1-.18,2.09-.7,2.91-1.24.39-.24.76-.55,1.27-.55.33,0,.67.12.82.42l-.36,10.66c0,1.48.15,2.7,1.94,3,.27.03.42.21.42.45,0,.27-.21.45-.45.45h-7.12c-.21,0-.42-.15-.42-.42s.15-.45.39-.48c1.94-.33,2.18-1.42,2.24-3.21l.24-6.42ZM427.81,93.1c0,1.3-.82,2.03-2.12,2.03s-1.91-.7-1.91-1.76c0-1.33.79-2.06,2.09-2.06s1.94.7,1.94,1.79Z"/>
    <path class="cls-1" d="M443.38,103.4c-.12,0-.24-.12-.3-.24-.67-1.6-2.15-2.91-4.3-2.91-3.06,0-4.6,2.51-4.6,5.12,0,2.76,1.7,5.54,5.12,5.54,1.39,0,3.12-.76,4.3-2.06.12-.12.24-.18.39-.18.24,0,.39.15.39.33,0,.09,0,.18-.06.24-1.21,2.85-3.66,4.3-6.3,4.3-4.24,0-6.36-3.33-6.36-6.75,0-4.06,2.72-8.48,8.3-8.48,2.85,0,4.09,1.18,4.09,3.3,0,.91-.21,1.79-.67,1.79Z"/>
    <path class="cls-1" d="M473.21,102.7c0,5.93-4.15,10.72-11.63,10.72-1.48,0-2.7-.18-4.3-.18h-3.45c-.21,0-.42-.15-.42-.42s.12-.39.39-.48c1.33-.3,2.03-1.03,2.06-2.33l.45-13.72c0-1.27-.73-1.94-2.03-2.12-.24-.06-.39-.21-.39-.45,0-.27.21-.45.45-.45h3.09c1.88,0,3.45-.15,5.21-.15,6.3,0,10.57,3.66,10.57,9.6ZM459.68,111.33c.91.36,1.91.54,2.94.54,2.03,0,4-.7,5.36-2.27,1.27-1.45,1.97-3.51,1.97-5.63,0-2.76-1.06-5.48-3.09-7.18-1.94-1.67-4.42-2.42-6.66-2.42-.49,0-.61.12-.61.45l-.54,15.69c0,.42.24.67.64.82Z"/>
    <path class="cls-1" d="M488.2,102.46c0,.7-.27,1.64-1.12,2.03-1.88.85-6.24,1.33-8.66,1.33-.12,0-.15.06-.15.18.03.7.21,1.39.42,1.97.88,1.94,2.6,2.97,4.66,2.97,1.67,0,3.3-.7,4.48-2.09.06-.12.21-.21.36-.21.24,0,.45.15.45.36,0,.06-.03.15-.06.21-1.21,2.85-3.94,4.36-6.6,4.36-4.03-.03-6.33-3.21-6.33-6.78,0-4.12,2.94-8.51,7.66-8.51,2.88,0,4.88,1.94,4.88,4.18ZM478.21,104.03c-.03.27-.03.51-.03.61.03.06.09.15.18.15,1.94,0,6.87-.88,6.87-1.54,0-1.33-1.24-3.03-3.15-3.06-2.27,0-3.57,1.85-3.88,3.85Z"/>
    <path class="cls-1" d="M501.32,100.91c0,.54-.09,1.54-.12,1.85,0,.15-.12.3-.33.3-.24,0-.33-.15-.33-.24-.61-1.91-2.42-2.94-4.12-2.94-1.39,0-2.48.7-2.48,1.97,0,1.39,2,2,3.36,2.57,1.76.73,3.48,1.42,4.15,2.97.15.42.24.79.24,1.3,0,.61-.12,1.27-.39,1.79-1.03,2.03-3.54,3.09-5.97,3.09-3.6-.03-4.27-1.21-4.27-3.6,0-.15,0-.94.03-1.09,0-.21.12-.33.36-.33.21,0,.3.12.33.18.88,2,3.06,3.18,4.97,3.18,1.33,0,2.45-.67,2.45-1.88,0-1.7-1.7-2.12-3.3-2.82-1.57-.7-3.24-1.3-4-2.6-.27-.48-.42-1.09-.42-1.67s.15-1.18.42-1.7c.94-1.73,3.18-2.97,5.81-2.97,2.97,0,3.6.97,3.6,2.63Z"/>
    <path class="cls-1" d="M507.19,102.7c0-1.18-.76-1.6-2.3-1.6-.09-.09-.15-.27-.15-.42,0-.27.18-.54.58-.64,1-.18,2.09-.7,2.91-1.24.39-.24.76-.55,1.27-.55.33,0,.67.12.82.42l-.36,10.66c0,1.48.15,2.7,1.94,3,.27.03.42.21.42.45,0,.27-.21.45-.45.45h-7.12c-.21,0-.42-.15-.42-.42s.15-.45.39-.48c1.94-.33,2.18-1.42,2.24-3.21l.24-6.42ZM510.74,93.1c0,1.3-.82,2.03-2.12,2.03s-1.91-.7-1.91-1.76c0-1.33.79-2.06,2.09-2.06s1.94.7,1.94,1.79Z"/>
    <path class="cls-1" d="M526,99.73c.64,0,2.63-.58,3.15-1.54.06-.12.15-.18.3-.18.36,0,.73,1.09.73,1.7,0,1.09-1,1.36-2.3,1.36l-.88-.06s-.06,0-.06.06c0,.03.12.15.27.42.3.64.49,1.42.49,2.18,0,2.54-1.48,4.3-3.6,5.97-.12.09-.7.61-.94.85-.12.12-.18.18-.18.21s.09.06.18.09c1.67.33,6.66,2.21,6.66,3.33,0,4.06-4.54,6.06-8.72,6.06-3.72,0-7.15-1.61-7.15-4.42,0-2.09,2.09-3.15,4.3-3.79,1.82-.51,2.45-1,3.76-2.21-.64.21-1.09.27-1.61.27-2.66,0-5.42-1.79-5.42-5.15,0-3.06,2.45-6.57,6.84-6.57,1.57,0,3.03.42,4.18,1.42ZM517.52,103.55c0,2.24,1.51,4.75,4.3,4.75,2.24,0,3.21-1.6,3.21-3.36,0-2.24-1.64-4.78-4.33-4.78-2.18,0-3.18,1.63-3.18,3.39ZM526.42,115.3c0-.82-3.45-2.12-5.36-2.73-.33-.12-.51-.18-.67-.18-.12,0-.42.15-.61.24-1.42.61-2.24,1.51-2.24,2.88,0,2.12,1.97,3.39,4.24,3.39s4.63-1.3,4.63-3.6Z"/>
    <path class="cls-1" d="M542.69,98.28c3.39,0,4.36,2.57,4.36,5.06l-.21,5.9c0,1.6.18,2.79,1.94,3.09.27.03.42.18.42.45s-.18.45-.45.45h-7.09c-.24,0-.42-.15-.42-.42s.12-.45.39-.48c1.94-.33,2.18-1.51,2.24-3.21l.15-4.36c0-1.91-.48-4.03-2.85-4.03-2.91,0-4,2.85-4.09,5.33l-.12,3.27c0,1.6.21,2.7,1.94,3,.24.03.39.18.39.45s-.18.45-.45.45h-7.06c-.24,0-.45-.15-.45-.42s.12-.45.39-.48c1.94-.36,2.18-1.48,2.24-3.21l.21-6.27c0-1.18-.91-1.6-2.45-1.6-.09-.12-.12-.27-.12-.42,0-.3.15-.58.58-.64.97-.18,2.24-.7,3.03-1.21.42-.27.73-.58,1.27-.58.33,0,.64.12.79.39l-.27,3.51c0,.09.03.12.06.12s.06-.03.09-.09c.97-2.45,3.09-4.06,5.54-4.06Z"/>
    <path class="cls-1" d="M563.62,102.46c0,.7-.27,1.64-1.12,2.03-1.88.85-6.24,1.33-8.66,1.33-.12,0-.15.06-.15.18.03.7.21,1.39.42,1.97.88,1.94,2.6,2.97,4.66,2.97,1.67,0,3.3-.7,4.48-2.09.06-.12.21-.21.36-.21.24,0,.45.15.45.36,0,.06-.03.15-.06.21-1.21,2.85-3.94,4.36-6.6,4.36-4.03-.03-6.33-3.21-6.33-6.78,0-4.12,2.94-8.51,7.66-8.51,2.88,0,4.88,1.94,4.88,4.18ZM553.62,104.03c-.03.27-.03.51-.03.61.03.06.09.15.18.15,1.94,0,6.87-.88,6.87-1.54,0-1.33-1.24-3.03-3.15-3.06-2.27,0-3.57,1.85-3.88,3.85Z"/>
    <path class="cls-1" d="M571.73,98.79l-.27,3.51c0,.09.03.12.06.12s.06-.03.09-.09c.73-1.88,2.88-4.09,4.94-4.09.94,0,1.06,1.97,1.06,3.94,0,.45-.24.85-.61.85-.27,0-.45-.12-.61-.33-.33-.39-.94-1.15-2.09-1.15-2,0-2.7,2.18-2.76,4l-.12,3.57c0,2.24,1.03,2.88,3.36,3.21.21.03.39.18.39.45s-.21.45-.45.45h-8.36c-.21,0-.45-.15-.45-.42s.15-.42.42-.48c1.85-.39,2-1.57,2.06-3.21l.21-6.27c0-1.18-.91-1.6-2.42-1.6-.15-.12-.21-.27-.21-.42,0-.3.24-.58.64-.64,1-.18,2.24-.7,3.03-1.21.42-.27.76-.58,1.27-.58.3,0,.64.12.82.39Z"/>
  </g>
  <text class="cls-2" transform="translate(-653.98 26.14)"><tspan x="0" y="0">Graphic Designer</tspan></text>
  <path class="cls-3" d="M400.4,36.96c-4.55-.06-8.34-2.79-9.89-7.11-1.16-3.24.62-6.95,4.02-8.15,3.81-1.34,7.24-.45,10.15,2.23,1.01.93,1.84,2.17,2.44,3.42,2.39,5.03-1.92,9.79-6.72,9.61Z"/>
  <path class="cls-3" d="M87.84,42.46c.45-.43.72-.65.96-.91,3.84-4.3,8.65-6.05,14.31-5.24,3.74.54,6.59,2.57,8.01,6.1.8,1.99,1.41,4.18,1.51,6.3.26,5.83.19,11.67.25,17.51.07,6.28-.02,12.58.28,18.85.4,8.49,4.22,15.24,11.45,19.78,5.93,3.73,12.74,3.68,18.03-.63,3.09-2.51,4.91-5.8,4.98-9.9.05-2.59.89-3.39,3.33-3.91,4.3-.91,8.29,2.2,9.69,5.02,1.01,2.04.28,4-.57,5.82-1.31,2.83-3.34,5.17-5.77,7.09-8.35,6.59-17.78,8.53-28.12,6.31-8.32-1.78-15.32-5.81-20.98-12.19-3.3-3.73-4.86-8.22-5.71-12.99-1.07-6.01-.66-12.1-.73-18.16-.05-4.49.03-8.99-.02-13.48-.03-2.76-.15-5.53-.36-8.29-.07-.94-.39-1.92-.83-2.76-.73-1.37-1.87-1.84-3.21-1.06-1.39.8-2.8,1.84-3.71,3.12-2.07,2.92-3.17,6.21-3.13,9.89.1,7.57.06,15.13.07,22.7,0,2.45-.58,3.29-2.88,3.82-3.31.76-6.65,1.01-9.98,0-2.78-.85-3.38-1.6-3.37-4.47.02-16.26.03-32.52.05-48.77,0-.6-.05-1.2-.04-1.8.01-1.37-.5-2.4-1.65-3.24-3.68-2.68-2.86-5.19.99-6.68,4.03-1.57,8.33-1.81,12.62-1.38,2.28.23,3.88,1.82,4,4.13.2,3.73.17,7.47.22,11.2.03,2.25.01,4.49.05,6.74,0,.41.14.83.26,1.48Z"/>
  <path class="cls-3" d="M573.3,42.62c1.31-1.18,2.27-2.22,3.41-3.03,4.48-3.2,9.3-4.27,14.61-2.21,2.89,1.12,4.7,3.26,5.58,6.06.71,2.26,1.19,4.67,1.26,7.03.24,8.82.23,17.65.39,26.47.07,3.81.04,7.64.51,11.41.92,7.39,4.95,12.97,11.16,16.83,6.11,3.79,12.88,3.57,18.2-.9,2.72-2.28,4.39-5.27,4.68-8.91.11-1.39-.23-2.91,1.2-3.89,1.45-1,3.16-1.11,4.75-.88,3.14.45,5.53,2.22,7.06,5.02,1.1,2,.37,4-.47,5.82-1.37,2.96-3.49,5.42-6.09,7.39-10.49,7.95-21.88,8.83-33.95,4.25-5.86-2.22-10.82-5.71-14.94-10.42-3.28-3.75-4.82-8.25-5.65-13.02-1.06-6.09-.65-12.25-.68-18.39-.03-5.69.09-11.39.03-17.08-.02-1.79-.26-3.59-.61-5.35-.65-3.25-2.76-4.07-5.37-2-3.57,2.83-5.19,6.77-5.26,11.22-.13,7.79-.02,15.58,0,23.37,0,2.85-.68,3.72-3.46,4.27-3.34.67-6.68.82-9.97-.35-2.28-.81-2.8-1.53-2.81-3.98,0-5.77.01-11.54,0-17.31,0-5.39-.07-10.79-.05-16.18,0-1.77-.34-3.26-2.02-4.18-.38-.21-.67-.6-.97-.93-1.42-1.62-1.3-3.11.49-4.37.84-.59,1.82-1.03,2.8-1.36,3.39-1.15,6.9-1.17,10.44-1.2,2.85-.03,5.65,1.86,5.63,5.37,0,.36.06.72.13,1.44Z"/>
  <path class="cls-3" d="M365.31,50.82c-1.08.68-1.89,1.2-2.71,1.69-5.94,3.57-12.22,5.13-19.11,3.29-3.35-.9-5.66-2.91-6.98-6.09-2-4.81-1.96-9.69-.95-14.74,1.83-9.1,9.81-15.14,17.89-16.33,3.3-.48,6.39.33,9.21,2.12,1.07.68,2.11,1.39,3.12,2.06.23-.15.42-.21.46-.32.97-2.83,3.16-3.41,5.86-3.44,3.34-.04,6.58.31,9.65,1.64,1.08.46,2.13,1.13,2.99,1.93,1.09,1.01,1.06,2.51-.19,3.28-2.36,1.47-2.54,3.7-2.53,6.05.03,8.81.17,17.62.11,26.44-.02,3.35-.19,6.75-.78,10.03-1.17,6.56-5.61,10.73-11.12,13.91-6.04,3.48-12.61,4.02-19.37,3.21-3.28-.39-6.5-1.08-9.4-2.79-2.84-1.67-5.12-3.81-6.35-7-.91-2.36-.76-4.53.48-6.67,2.27-3.91,8.66-6.93,13.13-6.22,1.7.27,2.11,1.02,2.02,2.83-.1,1.84-.19,3.76.18,5.54.85,4.08,5.21,6.13,8.93,4.21,3.48-1.8,5.61-4.81,5.81-8.74.23-4.56.05-9.13.02-13.7,0-.64-.2-1.27-.36-2.19ZM364.34,34.78c-.06-.89-.08-1.79-.19-2.68-.42-3.32-2.18-3.83-4.87-3.4-6.92,1.1-11.15,9.44-8.2,15.81,1.78,3.85,6.55,4.13,8.84,1.92.95-.92,1.83-2.01,2.39-3.19,1.27-2.65,2.01-5.47,2.02-8.46Z"/>
  <path class="cls-3" d="M41.96,19.31c6.64-.22,12.35,2.05,17.31,6.32,2.77,2.38,4.34,5.47,4.82,9.11.27,2.09-.83,3.67-2.1,5.02-2.4,2.55-5.38,4.01-8.99,3.81-.73-.04-1.47-.27-2.18-.48-1.61-.48-2.4-1.54-2.56-3.27-.15-1.54-.54-3.09-1.03-4.57-.7-2.15-2.21-3.71-4.12-4.87-2.37-1.44-5.51-.91-7.59,1.22-2.01,2.06-2.24,4.64-.41,7.13.78,1.05,1.86,1.96,2.97,2.67,3.92,2.48,8.02,4.68,11.85,7.28,5.23,3.54,10.09,7.54,13.12,13.27,1.57,2.96,2.55,6.08,1.93,9.49-.13.72-.36,1.44-.65,2.11-1.64,3.74-4.57,6.19-8.05,8.12-5.08,2.82-10.52,4.28-16.3,4.2-7.42-.11-14.15-2.35-19.6-7.57-1.43-1.37-2.56-3.11-3.63-4.8-1.04-1.64-.77-3.53-.16-5.22,1.6-4.38,8.23-8.98,12.44-8.64,2.89.23,3.97,1.07,3.9,3.95-.1,4.15,1.27,7.65,4.53,10.26,3.15,2.52,7.16,1.93,9.35-1.4,1.01-1.53,1.04-3.38.64-5.17-.51-2.24-1.97-3.79-3.75-5.14-3.12-2.37-6.55-4.18-10.04-5.9-3.95-1.96-7.9-3.96-11.29-6.84-2.51-2.13-4.37-4.75-5.46-7.83-1.77-5.03-.43-9.48,3.09-13.27,4.48-4.84,9.96-7.8,16.64-8.33,1.78-.14,3.55-.41,5.33-.63Z"/>
  <path class="cls-3" d="M478.82,44.85c1.69-.64,3.23-1.42,4.86-1.82,10.04-2.44,19.48,3.5,21.82,13.56,1.87,8,.51,15.46-5.14,21.52-5.7,6.12-12.82,9.17-21.42,7.45-1.38-.28-2.7-.36-4.15.04-3,.81-6.09.66-9.08-.29-2.28-.72-2.83-1.53-2.83-3.95,0-7.79,0-15.57,0-23.36,0-8.76,0-17.52.06-26.28.02-2.28-.26-4.31-2.2-5.81-.46-.35-.78-.91-1.08-1.42-.72-1.25-.57-2.31.57-3.16.83-.62,1.76-1.17,2.73-1.51,3.07-1.06,6.25-1.51,9.5-1.37.74.03,1.49.15,2.21.34,2.19.59,3.16,1.69,3.3,3.96.15,2.46.11,4.93.18,7.4.14,4.63.31,9.26.47,13.89,0,.27.12.54.19.82ZM478.07,68.81c.07,0,.14,0,.21.01,0,1.8-.03,3.6,0,5.39.05,2.06.81,2.59,2.67,1.7,5.3-2.53,8.91-6.56,10.08-12.39.62-3.07.33-6.15-1.85-8.7-2.21-2.58-5.48-2.58-7.81-.08-1.48,1.58-2.45,3.44-2.7,5.56-.32,2.82-.41,5.66-.6,8.49Z"/>
  <path class="cls-3" d="M430.33,45.2c2.7-1.63,5.16-2.38,7.8-2.65,8.36-.87,16.25,4.56,18.68,12.63,1.79,5.94,1.49,11.73-.96,17.31-2.17,4.94-6.02,8.47-10.8,10.98-4.99,2.62-10.21,3.12-15.67,1.9-.75-.17-1.61-.05-2.37.13-3.28.8-6.53.77-9.74-.27-2.09-.67-2.65-1.46-2.65-3.62-.02-9.74-.01-19.48,0-29.22,0-7.04,0-14.09.07-21.13.02-2.05-.34-3.86-2.08-5.19-.35-.27-.6-.67-.86-1.03-1.25-1.76-1.06-2.99.74-4.15,2.39-1.56,5.14-2.07,7.9-2.31,1.92-.17,3.9-.13,5.8.19,2.4.41,3.38,1.58,3.46,3.99.18,5.08.18,10.17.31,15.25.05,2.23.23,4.46.38,7.19ZM443,61.18c-.07-2.32-.51-4.48-2.06-6.29-2.22-2.59-5.47-2.67-7.81-.2-1.37,1.46-2.29,3.17-2.66,5.11-.97,5.05-.4,10.15-.42,15.23,0,1.06.78,1.53,1.91,1.13,1.05-.37,2.07-.9,2.99-1.51,4.81-3.21,7.73-7.58,8.04-13.47Z"/>
  <path class="cls-3" d="M289.48,81.65c-1.12.39-2.12.67-3.05,1.09-3.83,1.7-7.8,2.43-12,2.17-8.43-.53-13.33-5.8-12.97-14.24.16-3.73,1.24-7.26,3.27-10.37,1.91-2.92,4.89-4.55,8.16-5.62,4.57-1.5,8.99-.98,13.29,1.04.74.35,1.47.72,2.21,1.07.06.03.15,0,.37,0-.25-4.27-.91-8.31-4.62-11.11-2.55-1.93-5.48-1.74-7.58.72-1.04,1.22-1.71,2.77-2.49,4.2-.28.51-.39,1.12-.56,1.65-1.49.56-2.92.48-4.27.02-1.48-.5-2.98-1.06-4.32-1.86-3.72-2.24-4.43-5.06-1.62-8.54,2.28-2.83,5.2-4.74,8.8-5.43,6.84-1.31,13.53-1.11,19.94,2.03,7.61,3.74,10.98,10.02,11.15,18.27.12,5.82.16,11.64.33,17.45.02.74.56,1.5.97,2.18.22.36.68.57,1.02.86,2.63,2.27,2.44,4.2-.68,5.61-3.09,1.4-6.35,2.31-9.76,2.29-2.42-.01-4.88-.23-5.59-3.5ZM288.34,71.36c-.05,0-.1,0-.15,0,0-.6.07-1.2-.01-1.79-.39-2.68-.97-5.32-2.75-7.45-2.32-2.76-5.89-2.57-7.75.3-3.58,5.54.16,13.47,6.67,14.17,2.25.24,3.32-.54,3.73-2.79.15-.8.18-1.62.26-2.44Z"/>
  <path class="cls-3" d="M624.74,87.24c-4.48,0-9.49-1.34-13.81-4.6-1.52-1.15-2.75-2.7-4.02-4.15-1.28-1.47-1.16-3.23-.47-4.87,1.42-3.37,6.83-6.96,10.48-6.61,1.96.19,2.67.61,3,2.61.49,2.99,1.79,5.36,4.54,6.82,1.45.77,2.92,1.06,4.53.47,3.34-1.22,4.12-4.22,1.49-6.61-1.64-1.49-3.57-2.72-5.53-3.77-3.29-1.77-6.73-3.26-10.07-4.94-3.2-1.61-5.91-3.78-7.69-6.99-1.99-3.56-1.91-7.03.49-10.32,2.85-3.9,6.79-6.34,11.4-7.52,3.99-1.02,8.11-1.45,12.22-.83,4.8.72,9.04,2.66,12.14,6.54.77.97,1.28,2.18,1.74,3.35.76,1.91.39,3.67-1.04,5.19-2.42,2.55-5.32,3.85-8.86,3.21-2.05-.37-2.61-1.02-2.84-3.14-.3-2.86-1.92-4.78-4.19-6.3-2.3-1.53-5.96-.13-7.16,1.78-.9,1.43-.58,3.44,1.07,4.83,1.3,1.09,2.82,1.98,4.35,2.72,4.94,2.38,9.61,5.17,13.84,8.67,2.47,2.04,4.43,4.5,5.55,7.49,1.87,4.99.74,8.42-3.48,11.66-4.87,3.74-10.61,5.41-17.69,5.32Z"/>
  <path class="cls-3" d="M510.44,61.76c.28-7.86,2.62-14.31,7.65-19.43,7.62-7.75,20.25-8.09,27.94,2.01,8.01,10.52,7.62,25.86-.96,35.8-6.51,7.54-16.54,8.87-24.24,3.39-7.26-5.17-10.08-12.9-10.39-21.77ZM526.01,62.09c-.19,2.69.38,5.3,1.22,7.81.4,1.19,1.02,2.36,1.77,3.33,1.41,1.83,3.23,1.81,4.77.11.36-.39.64-.88.91-1.36,2.39-4.17,2.91-8.77,2.51-13.58-.24-2.87-.85-5.64-2.35-8.02-1.88-3-4.56-2.86-6.33.23-2,3.49-2.57,7.37-2.5,11.48Z"/>
  <path class="cls-3" d="M135.92,62.28c-.17,3.47.7,6.49,2.11,9.43.88,1.84,2.13,3.2,3.88,4.2,2.4,1.38,4.63.91,6.3-1.78.84-1.35,1.2-3.04,1.62-4.62.56-2.09,1.18-2.71,3.25-2.5,2.51.25,4.8,1.07,6.66,2.87,2.09,2.03,2.55,5.02,1.15,7.55-1.83,3.29-4.48,5.69-8.13,6.63-7.5,1.93-14.93,1.93-22.16-1.3-4.48-2-7.71-5.32-9.3-9.86-3.39-9.69-2.2-18.84,4.01-27.2,4.13-5.56,9.92-7.99,16.54-8.77,4.89-.57,9.62.1,13.7,3.04,1.54,1.11,2.97,2.59,3.94,4.21,2.32,3.88,1.03,8.7-2.77,11.52-2.31,1.72-4.85,3.04-7.6,3.75-3.68.96-7.44,1.63-11.17,2.41-.58.12-1.16.22-2.03.38ZM136.2,55.84c1.57-.29,2.87-.44,4.13-.77,3.6-.95,6.32-2.9,7.42-6.68.41-1.38.5-2.66-.57-3.74-.92-.93-2.89-1.07-4.18-.21-3.94,2.62-5.99,6.41-6.8,11.4Z"/>
  <path class="cls-3" d="M182.52,62.32c-.08,4.26,1.08,7.92,3.23,11.25.95,1.48,2.49,2.38,4.16,2.93,1.83.61,3.96-.35,5.02-2.45.73-1.45,1.15-3.07,1.58-4.64.54-1.97,1.15-2.56,3.11-2.39,2.43.21,4.67.97,6.52,2.66,2.33,2.12,2.88,5.17,1.33,7.88-2.08,3.65-5.19,5.87-9.26,6.9-4.36,1.1-8.79,1.04-13.17.59-4.2-.43-8.19-1.82-11.54-4.54-4.31-3.49-6.53-8.13-7.04-13.57-.23-2.53-.49-5.12-.17-7.61.76-5.94,3.24-11.21,7.33-15.6,2.65-2.85,6.04-4.59,9.75-5.74,5.01-1.55,10-1.65,15,0,3.1,1.02,5.61,2.89,7.42,5.56,2.47,3.64,1.99,9.04-2.54,12.28-3.41,2.45-7.27,3.83-11.31,4.73-2.48.55-5,.91-7.5,1.36-.58.1-1.15.23-1.93.4ZM182.85,56c2.12-.55,3.83-.97,5.52-1.44,3.36-.93,5.14-3.36,6.14-6.52.38-1.21.32-2.42-.62-3.33-1-.97-2.31-1.05-3.55-.58-.75.28-1.45.77-2.06,1.3-3.05,2.64-4.74,6.01-5.43,10.57Z"/>
  <path class="cls-3" d="M406.44,66.91c.16,4.33.34,8.66.46,12.99.09,3.22-1.34,5-4.42,5.86-4.83,1.35-9.36.14-13.74-1.73-2.31-.99-2.49-2.8-.74-4.68.36-.38.77-.72,1.17-1.05.99-.83,1.43-1.87,1.39-3.16-.24-7.19-.48-14.37-.66-21.56-.05-2.09.08-4.19.21-6.28.04-.74.28-1.47.51-2.18.55-1.71,1.65-2.92,3.5-3.04,2.3-.16,4.63-.27,6.93-.12,1.7.11,3.41.56,5.04,1.08,1.11.36,2.2.97,3.1,1.71,1.22,1,1.12,2.39-.03,3.49-.16.15-.35.29-.53.41-1.9,1.26-2.42,3.07-2.31,5.26.22,4.33.33,8.66.49,13-.12,0-.23,0-.35.01Z"/>
  <path class="cls-3" d="M256.4,81.49c0-.2,0-.4,0-.6,0-.29,0-.58,0-.87-.01-7.41-.11-14.83-.08-22.29.01-2.13.01-4.26-.15-6.39-.23-2.99-.72-6.24-2.17-8.92-1.26-2.33-3.32-4.15-5.71-5.25-5.32-2.45-12.76-.52-16.71,3.76-.39.42-.78.84-1.51,1.63-.07-.89-.13-1.26-.13-1.62.05-3.23-2.45-5.39-5.62-5.4-3.54-.01-7.05.07-10.44,1.21-.98.33-1.96.77-2.8,1.36-1.8,1.25-1.93,2.74-.51,4.36.29.34.58.74.96.94,1.73.9,2.02,2.44,2.02,4.18,0,5.39.07,10.78.09,16.18.02,5.77,0,11.54,0,17.31,0,2.47.5,3.19,2.78,3.99,3.68,1.3,7.38,1.02,11.05.05,1.81-.48,2.35-1.39,2.4-3.29.01-.6,0-1.2,0-1.8-.01-7.41-.11-14.83,0-22.24.07-4.31,1.72-8.08,4.92-10.96,1.1-.99,2.98-1.79,4.4-.93,1.39.85,1.83,3.01,1.91,4.5.23,4.44-.2,8.92-.19,13.37.01,5.77,0,11.54,0,17.31,0,2.47.48,3.19,2.66,3.99,3.51,1.3,7.05,1.02,10.55.05,1.73-.48,2.25-1.39,2.29-3.29,0-.11,0-.22,0-.33Z"/>
</svg>